# xmcd
#
# Track frame offsets: 
#        150
#        10663
#        21394
#        31781
#        41458
#        52483
#        62409
#        71894
#        85623
#        106784
#        118394
#        128350
#        136932
#        147162
#        157382
#        171589
#        185121
#        196870
#        211685
#
# Disc length: 2965 seconds
#
# Revision: 0
# Processed by: cddbd v1.5.1PL0 Copyright (c) Steve Scherf et al.
# Submitted via: ExactAudioCopy v0.95a5
#
DISCID=110b9313
DTITLE=The Everly Brothers - Original Gold [CD2]
DYEAR=2003
DGENRE=Pop
TTITLE0=All I Have To Do Is Dream
TTITLE1=('Til) I Kissed You
TTITLE2=Be Bop A-Lula
TTITLE3=Poor Jenny
TTITLE4=Take A Message To Mary
TTITLE5=Claudette
TTITLE6=Love Of My Life
TTITLE7=Down In The Willow Garden
TTITLE8=Barbara Allen
TTITLE9=Leave My Woman Alone
TTITLE10=Wonder If I Care As Much
TTITLE11=Since You Broke My Heart
TTITLE12=Keep A Knockin´
TTITLE13=Brand New Heartache
TTITLE14=That Silver Haired Daddy Of Mine
TTITLE15=Rockin´Alone
TTITLE16=Oh So Many Years
TTITLE17=Put My Little Shoes Away
TTITLE18=Long Time Gone
EXTD=Disky Compilation \n\nBX 905603\n\n\n\n\nJWB - June 2004\n\n
EXTT0=
EXTT1=
EXTT2=
EXTT3=
EXTT4=
EXTT5=
EXTT6=
EXTT7=
EXTT8=
EXTT9=
EXTT10=
EXTT11=
EXTT12=
EXTT13=
EXTT14=
EXTT15=
EXTT16=
EXTT17=
EXTT18=
PLAYORDER=
